<?xml version="1.0" standalone="no"?>
<!DOCTYPE svg PUBLIC "-//W3C//DTD SVG 20010904//EN"
 "http://www.w3.org/TR/2001/REC-SVG-20010904/DTD/svg10.dtd">
<svg version="1.0" xmlns="http://www.w3.org/2000/svg"
 width="160.000000pt" height="160.000000pt" viewBox="0 0 160.000000 160.000000"
 preserveAspectRatio="xMidYMid meet">
<metadata>
Created by potrace 1.14, written by Peter Selinger 2001-2017
</metadata>
<g transform="translate(0.000000,160.000000) scale(0.100000,-0.100000)"
fill="#000000" stroke="none">
<path d="M927 1572 c-24 -26 -21 -67 7 -97 24 -25 26 -26 55 -11 52 28 63 73
25 111 -21 21 -67 19 -87 -3z"/>
<path d="M726 1466 c-41 -41 -32 -84 26 -121 12 -8 18 -35 22 -110 5 -84 9
-103 26 -117 26 -21 26 -45 0 -51 -17 -4 -16 -4 2 -3 16 1 24 8 26 24 4 28 54
33 51 5 -3 -33 1 -43 18 -43 16 0 16 1 0 13 -27 20 -6 42 29 30 34 -11 42 -50
10 -45 -17 3 -18 1 -8 -11 7 -8 10 -21 7 -28 -3 -8 16 -34 45 -62 27 -26 50
-43 50 -38 0 5 -18 25 -40 44 -24 21 -40 43 -40 56 l0 22 29 -20 c38 -28 52
-26 76 8 42 59 108 131 116 125 5 -3 18 0 29 6 40 22 13 87 -30 72 -22 -8 -31
-24 -25 -49 4 -17 -10 -41 -57 -98 -35 -41 -67 -75 -73 -75 -21 1 -55 38 -49
54 8 20 14 20 42 0 12 -8 22 -11 22 -6 0 5 -11 14 -25 20 -23 11 -23 13 -10
38 8 15 21 29 30 30 60 9 58 84 -2 84 -29 0 -44 -27 -32 -58 8 -20 1 -50 -17
-70 -1 -2 -19 2 -38 9 -41 15 -43 26 -22 107 8 28 11 52 7 52 -4 0 -14 -31
-21 -70 -13 -67 -14 -70 -42 -70 -28 0 -28 1 -23 46 2 26 11 54 19 63 10 11
12 21 5 34 -12 21 -45 22 -53 2 -6 -18 2 -45 15 -45 8 0 5 -88 -3 -96 -2 -2
-9 0 -15 4 -15 9 -28 222 -14 222 20 0 51 40 51 64 0 31 -28 64 -62 72 -21 4
-33 0 -52 -20z"/>
<path d="M945 1404 c-4 -22 -11 -55 -16 -74 -9 -37 -12 -66 -5 -59 7 7 37 161
32 166 -3 3 -8 -12 -11 -33z"/>
<path d="M377 1299 c-26 -15 -47 -63 -41 -95 2 -16 16 -40 31 -53 23 -20 33
-22 73 -17 45 6 47 5 80 -36 19 -24 38 -44 42 -46 4 -2 8 -8 8 -14 0 -16 -54
-68 -70 -68 -8 0 -85 43 -170 94 l-155 93 -3 41 c-5 72 -71 104 -126 61 -37
-29 -37 -89 0 -118 32 -25 61 -27 92 -6 26 19 28 18 215 -97 71 -43 137 -78
147 -78 10 0 33 15 49 32 27 29 32 31 46 18 13 -14 12 -18 -11 -43 -14 -16
-24 -31 -21 -33 3 -3 14 7 26 22 17 21 24 24 35 15 12 -10 13 -9 9 8 -7 26 54
61 68 40 6 -10 33 -14 93 -14 46 0 82 4 79 9 -3 5 -39 6 -79 3 -56 -4 -76 -2
-85 9 -9 11 -6 15 20 20 17 4 34 10 36 15 3 4 -9 4 -27 -2 -44 -12 -45 -12
-51 11 -3 13 0 20 8 20 8 0 17 5 21 11 4 8 0 9 -15 4 -31 -10 -44 3 -27 26 7
11 11 29 9 40 -7 26 -50 36 -70 16 -22 -22 -10 -63 22 -71 36 -9 31 -29 -11
-50 -20 -9 -34 -19 -31 -23 3 -3 22 4 41 16 32 20 35 21 44 4 8 -14 4 -22 -25
-42 -36 -24 -36 -24 -52 -3 -9 11 -38 45 -65 76 -45 52 -48 59 -37 82 20 45
14 80 -20 108 -32 27 -71 33 -102 15z"/>
<path d="M1295 1241 c-40 -17 -59 -50 -57 -96 1 -42 0 -44 -47 -74 -95 -61
-108 -83 -75 -129 15 -22 15 -24 -5 -29 -14 -3 -21 -13 -21 -28 0 -12 -7 -28
-15 -35 -10 -9 -14 -30 -13 -76 1 -35 6 -58 10 -51 5 7 6 32 3 57 -5 48 5 77
24 66 6 -4 11 -20 11 -37 0 -16 4 -29 10 -29 5 0 8 6 6 13 -17 53 -16 67 3 67
11 0 25 -8 31 -17 9 -16 10 -15 5 5 -4 12 -3 22 2 22 4 0 39 7 78 15 61 12 71
12 85 0 24 -22 47 -18 66 10 16 24 16 27 -1 45 -10 11 -24 20 -31 20 -14 0
-40 -23 -46 -41 -2 -6 -37 -17 -78 -25 -93 -17 -87 -18 -93 5 -4 16 11 26 87
61 50 24 119 56 154 72 54 26 67 28 94 19 40 -14 44 -14 62 5 32 31 14 81 -31
89 -24 3 -53 -23 -53 -49 0 -17 -28 -34 -160 -95 -155 -71 -161 -73 -175 -55
-25 33 -13 56 58 106 64 46 69 48 90 33 57 -40 137 2 137 73 0 60 -62 105
-115 83z m-155 -357 c0 -8 -9 -14 -20 -14 -22 0 -28 26 -7 33 16 6 27 -1 27
-19z"/>
<path d="M226 995 c-26 -26 10 -69 38 -46 8 6 54 -5 136 -34 68 -24 128 -41
132 -39 15 9 29 44 18 44 -5 0 -10 -6 -10 -14 0 -8 -3 -17 -8 -20 -16 -9 -237
75 -260 99 -27 29 -26 29 -46 10z"/>
<path d="M618 933 c-31 -36 -80 -162 -57 -148 5 4 9 13 9 21 0 21 41 114 50
114 4 0 10 7 14 15 7 20 3 19 -16 -2z"/>
<path d="M880 855 c-67 -68 -79 -69 -75 -9 1 19 -1 37 -5 39 -3 2 -49 -39
-101 -91 -90 -90 -111 -127 -85 -145 5 -4 35 21 67 54 33 34 59 55 60 46 1 -7
2 -32 4 -54 1 -22 3 -44 4 -50 0 -5 30 20 66 55 l65 64 0 -49 c0 -73 10 -81
48 -42 32 33 33 35 33 132 0 54 -4 102 -8 106 -5 5 -38 -20 -73 -56z"/>
<path d="M207 868 c-29 -10 -43 -43 -33 -81 11 -47 91 -54 111 -9 5 12 17 22
25 23 10 0 11 2 2 6 -7 3 -19 17 -27 33 -17 32 -39 40 -78 28z"/>
<path d="M1239 847 c-9 -6 -21 -22 -28 -34 -6 -13 -18 -23 -26 -23 -9 0 -15
-10 -16 -22 -2 -83 -12 -107 -41 -101 -19 4 -27 -1 -36 -21 -9 -19 -19 -26
-41 -26 -17 0 -35 -8 -43 -18 -7 -10 -31 -31 -53 -47 -48 -36 -54 -43 -50 -64
2 -12 -10 -19 -44 -26 -35 -9 -47 -16 -49 -32 -2 -12 -11 -24 -20 -26 -15 -4
-15 -5 1 -6 15 -1 17 -15 17 -145 0 -142 0 -144 -25 -160 -26 -17 -32 -45 -15
-77 15 -27 75 -26 90 2 16 29 8 63 -17 74 -22 9 -23 14 -23 157 l0 148 24 0
c13 0 37 3 54 6 29 6 30 5 52 -59 l21 -66 -22 -30 c-42 -57 4 -125 73 -108 23
6 48 43 48 71 0 23 -33 56 -60 59 -19 3 -28 14 -41 50 -33 91 -33 94 6 113 20
9 34 19 31 21 -2 2 -18 -3 -35 -11 -38 -20 -38 -20 -43 2 -4 14 7 25 43 46
l48 27 16 -30 c10 -20 12 -38 7 -53 -12 -32 -5 -54 21 -65 52 -24 99 36 62 77
-10 11 -31 20 -46 20 -18 0 -30 6 -34 19 -13 40 -31 44 -75 15 -35 -23 -43
-25 -51 -13 -7 10 -2 19 18 34 15 11 43 35 64 53 50 44 92 44 52 0 -9 -10 -12
-18 -7 -18 5 0 15 9 22 20 10 17 15 18 31 8 10 -6 16 -19 14 -28 -3 -10 17
-36 58 -73 34 -31 65 -57 70 -57 4 0 5 -22 2 -48 -5 -41 -2 -52 19 -77 34 -39
91 -40 125 -1 60 70 -7 168 -94 137 -31 -12 -37 -10 -66 12 -51 39 -107 95
-107 106 0 16 6 14 36 -14 18 -16 31 -22 37 -16 12 12 1 44 -13 36 -5 -3 -19
-1 -29 5 -18 9 -19 14 -9 38 18 42 19 42 98 18 60 -18 77 -28 90 -52 20 -34
54 -42 81 -18 22 20 24 43 6 68 -17 23 -64 24 -80 2 -11 -15 -19 -14 -95 9
-45 14 -80 30 -77 34 2 5 7 30 10 57 7 55 24 73 40 41 5 -12 23 -28 38 -37 24
-13 30 -13 54 0 15 9 32 28 37 43 20 55 -59 110 -105 74z m-97 -193 c6 -6 -13
-64 -22 -64 -3 0 -12 4 -20 10 -12 7 -12 12 0 34 13 25 30 33 42 20z m-222
-214 c0 -11 -6 -20 -12 -20 -7 0 -30 -3 -50 -6 -34 -6 -38 -4 -38 14 0 15 8
22 28 25 62 9 72 8 72 -13z"/>
<path d="M330 809 c0 -5 11 -9 25 -9 14 0 25 2 25 4 0 2 -11 6 -25 8 -14 3
-25 1 -25 -3z"/>
<path d="M410 810 c0 -4 9 -10 20 -13 15 -4 20 -14 20 -37 0 -18 7 -59 16 -92
8 -33 14 -61 12 -62 -10 -7 -168 -76 -174 -76 -3 0 -17 9 -31 20 -45 35 -101
23 -127 -28 -28 -54 17 -121 81 -122 36 0 75 41 76 80 2 32 6 37 62 63 33 15
74 34 90 42 26 12 30 12 33 -1 5 -21 -28 -44 -54 -38 -25 6 -47 -17 -38 -40 8
-21 43 -21 51 2 4 9 19 29 35 44 16 14 26 32 23 40 -6 15 32 38 62 38 9 0 29
-15 45 -32 16 -18 25 -24 19 -13 -24 52 -50 61 -117 40 -18 -6 -24 -1 -33 27
-6 18 -13 58 -17 88 -3 30 -8 58 -10 61 -6 10 -44 18 -44 9z"/>
<path d="M550 755 c0 -8 4 -15 10 -15 5 0 7 7 4 15 -4 8 -8 15 -10 15 -2 0 -4
-7 -4 -15z"/>
<path d="M338 733 c-41 -47 23 -111 66 -67 20 20 20 48 0 68 -20 21 -47 20
-66 -1z"/>
<path d="M546 518 c18 -22 28 -31 68 -60 18 -14 18 -16 -8 -55 -15 -23 -36
-43 -47 -46 -22 -6 -25 -30 -5 -46 22 -18 46 -2 46 31 0 29 34 98 48 98 4 0
18 -9 31 -19 23 -18 24 -20 11 -67 -14 -53 -28 -77 -40 -69 -4 3 -19 -5 -34
-16 -49 -39 -21 -119 42 -119 63 1 90 68 47 118 -22 26 -22 29 -8 71 18 54 11
84 -23 99 l-26 12 20 33 c12 21 25 31 38 30 10 -2 48 -5 84 -7 60 -4 61 -4 15
3 -27 5 -64 12 -81 16 -32 7 -34 6 -73 -44 l-18 -25 -42 33 c-22 18 -41 37
-41 42 0 5 -5 9 -12 9 -6 0 -3 -10 8 -22z"/>
</g>
</svg>
